<?xml version="1.0" encoding="UTF-8"?>
<svg id="Layer_2" data-name="Layer 2" xmlns="http://www.w3.org/2000/svg" viewBox="0 0 322.39 557.21">
  <g id="Layer_1-2" data-name="Layer 1">
    <path
      d="M322.39,279.1c0-57.32-29.92-107.65-74.99-136.23-.5-.32-1-.63-1.51-.95-2.76-1.49-5.48-3.07-8.15-4.71C191.8,108.8,161.2,57.98,161.2,0c0,57.98-30.61,108.8-76.55,137.21-2.65,1.63-5.35,3.2-8.1,4.68-1.03.64-2.05,1.29-3.06,1.95C29.25,172.58,0,222.42,0,279.1c0,64.04,37.35,119.36,91.45,145.37,42.13,29.09,69.75,77.68,69.75,132.74,0-55.06,27.61-103.65,69.73-132.74,54.11-26,91.46-81.33,91.46-145.37Z" />
  </g>
</svg>